<mxfile host="app.diagrams.net" agent="Mozilla/5.0 (Windows NT 10.0; Win64; x64) AppleWebKit/537.36 (KHTML, like Gecko) Chrome/139.0.0.0 Safari/537.36" version="28.1.0">
  <diagram id="C2fSY1v2SiZeoUbDoYyL" name="Page-1">
    <mxGraphModel dx="1426" dy="785" grid="1" gridSize="10" guides="1" tooltips="1" connect="1" arrows="1" fold="1" page="1" pageScale="1" pageWidth="1169" pageHeight="827" math="0" shadow="0">
      <root>
        <mxCell id="0" />
        <mxCell id="1" parent="0" />
        <mxCell id="-tCwXL8RaE2nh4MEFX0--1" value="&lt;font style=&quot;font-size: 18px;&quot;&gt;Pending&lt;/font&gt;" style="ellipse;whiteSpace=wrap;html=1;" parent="1" vertex="1">
          <mxGeometry x="210" y="260" width="120" height="80" as="geometry" />
        </mxCell>
        <mxCell id="-tCwXL8RaE2nh4MEFX0--2" value="&lt;font style=&quot;font-size: 18px;&quot;&gt;Completed&lt;/font&gt;" style="ellipse;whiteSpace=wrap;html=1;" parent="1" vertex="1">
          <mxGeometry x="440" y="414" width="120" height="80" as="geometry" />
        </mxCell>
        <mxCell id="-tCwXL8RaE2nh4MEFX0--3" value="&lt;font style=&quot;font-size: 18px;&quot;&gt;In-progress by employee y&lt;/font&gt;" style="ellipse;whiteSpace=wrap;html=1;" parent="1" vertex="1">
          <mxGeometry x="440" y="260" width="120" height="80" as="geometry" />
        </mxCell>
        <mxCell id="-tCwXL8RaE2nh4MEFX0--4" value="&lt;font style=&quot;font-size: 18px;&quot;&gt;Finalized&lt;/font&gt;" style="ellipse;whiteSpace=wrap;html=1;" parent="1" vertex="1">
          <mxGeometry x="210" y="414" width="120" height="80" as="geometry" />
        </mxCell>
        <mxCell id="-tCwXL8RaE2nh4MEFX0--5" value="" style="curved=1;endArrow=classic;html=1;rounded=0;exitX=0.5;exitY=0;exitDx=0;exitDy=0;entryX=0.425;entryY=0;entryDx=0;entryDy=0;entryPerimeter=0;" parent="1" source="-tCwXL8RaE2nh4MEFX0--1" target="-tCwXL8RaE2nh4MEFX0--3" edge="1">
          <mxGeometry width="50" height="50" relative="1" as="geometry">
            <mxPoint x="360" y="230" as="sourcePoint" />
            <mxPoint x="410" y="180" as="targetPoint" />
            <Array as="points">
              <mxPoint x="410" y="230" />
              <mxPoint x="400" y="230" />
            </Array>
          </mxGeometry>
        </mxCell>
        <mxCell id="-tCwXL8RaE2nh4MEFX0--6" value="&lt;font style=&quot;font-size: 14px;&quot;&gt;admin assigns &lt;br&gt;to employee y&lt;/font&gt;" style="edgeLabel;html=1;align=center;verticalAlign=middle;resizable=0;points=[];" parent="-tCwXL8RaE2nh4MEFX0--5" vertex="1" connectable="0">
          <mxGeometry x="-0.0485" y="-1" relative="1" as="geometry">
            <mxPoint as="offset" />
          </mxGeometry>
        </mxCell>
        <mxCell id="-tCwXL8RaE2nh4MEFX0--7" value="" style="curved=1;endArrow=classic;html=1;rounded=0;exitX=1;exitY=0.5;exitDx=0;exitDy=0;entryX=1;entryY=0;entryDx=0;entryDy=0;" parent="1" source="-tCwXL8RaE2nh4MEFX0--3" target="-tCwXL8RaE2nh4MEFX0--2" edge="1">
          <mxGeometry width="50" height="50" relative="1" as="geometry">
            <mxPoint x="470" y="320" as="sourcePoint" />
            <mxPoint x="470" y="474" as="targetPoint" />
            <Array as="points">
              <mxPoint x="620" y="360" />
              <mxPoint x="625" y="350" />
            </Array>
          </mxGeometry>
        </mxCell>
        <mxCell id="-tCwXL8RaE2nh4MEFX0--8" value="&lt;font style=&quot;font-size: 14px;&quot;&gt;employee y complete&lt;/font&gt;" style="edgeLabel;html=1;align=center;verticalAlign=middle;resizable=0;points=[];" parent="-tCwXL8RaE2nh4MEFX0--7" vertex="1" connectable="0">
          <mxGeometry x="-0.0485" y="-1" relative="1" as="geometry">
            <mxPoint as="offset" />
          </mxGeometry>
        </mxCell>
        <mxCell id="-tCwXL8RaE2nh4MEFX0--13" value="" style="curved=1;endArrow=classic;html=1;rounded=0;exitX=0.5;exitY=1;exitDx=0;exitDy=0;entryX=1;entryY=1;entryDx=0;entryDy=0;" parent="1" source="-tCwXL8RaE2nh4MEFX0--2" target="-tCwXL8RaE2nh4MEFX0--4" edge="1">
          <mxGeometry width="50" height="50" relative="1" as="geometry">
            <mxPoint x="501" y="560" as="sourcePoint" />
            <mxPoint x="280" y="560" as="targetPoint" />
            <Array as="points">
              <mxPoint x="410" y="530" />
              <mxPoint x="420" y="530" />
            </Array>
          </mxGeometry>
        </mxCell>
        <mxCell id="-tCwXL8RaE2nh4MEFX0--14" value="&lt;span style=&quot;font-size: 14px;&quot;&gt;admin review and close&lt;/span&gt;" style="edgeLabel;html=1;align=center;verticalAlign=middle;resizable=0;points=[];" parent="-tCwXL8RaE2nh4MEFX0--13" vertex="1" connectable="0">
          <mxGeometry x="-0.0485" y="-1" relative="1" as="geometry">
            <mxPoint as="offset" />
          </mxGeometry>
        </mxCell>
        <mxCell id="-tCwXL8RaE2nh4MEFX0--15" value="" style="endArrow=classic;html=1;rounded=0;entryX=0;entryY=0.5;entryDx=0;entryDy=0;" parent="1" target="-tCwXL8RaE2nh4MEFX0--1" edge="1">
          <mxGeometry width="50" height="50" relative="1" as="geometry">
            <mxPoint x="110" y="300" as="sourcePoint" />
            <mxPoint x="100" y="250" as="targetPoint" />
          </mxGeometry>
        </mxCell>
        <mxCell id="-tCwXL8RaE2nh4MEFX0--17" value="&lt;font style=&quot;font-size: 14px;&quot;&gt;insert new&lt;/font&gt;" style="edgeLabel;html=1;align=center;verticalAlign=middle;resizable=0;points=[];" parent="-tCwXL8RaE2nh4MEFX0--15" vertex="1" connectable="0">
          <mxGeometry x="-0.4333" y="-1" relative="1" as="geometry">
            <mxPoint as="offset" />
          </mxGeometry>
        </mxCell>
        <mxCell id="-tCwXL8RaE2nh4MEFX0--18" value="" style="curved=1;endArrow=classic;html=1;rounded=0;entryX=0;entryY=0.5;entryDx=0;entryDy=0;exitX=0;exitY=0;exitDx=0;exitDy=0;" parent="1" source="-tCwXL8RaE2nh4MEFX0--2" target="-tCwXL8RaE2nh4MEFX0--3" edge="1">
          <mxGeometry width="50" height="50" relative="1" as="geometry">
            <mxPoint x="380" y="400" as="sourcePoint" />
            <mxPoint x="430" y="350" as="targetPoint" />
            <Array as="points">
              <mxPoint x="430" y="400" />
              <mxPoint x="380" y="350" />
            </Array>
          </mxGeometry>
        </mxCell>
        <mxCell id="-tCwXL8RaE2nh4MEFX0--19" value="&lt;font style=&quot;font-size: 14px;&quot;&gt;admin restore to&lt;/font&gt;&lt;span style=&quot;font-size: 14px;&quot;&gt;&amp;nbsp;in-progress&lt;/span&gt;" style="edgeLabel;html=1;align=center;verticalAlign=middle;resizable=0;points=[];" parent="-tCwXL8RaE2nh4MEFX0--18" vertex="1" connectable="0">
          <mxGeometry x="-0.0725" y="-6" relative="1" as="geometry">
            <mxPoint y="-1" as="offset" />
          </mxGeometry>
        </mxCell>
      </root>
    </mxGraphModel>
  </diagram>
</mxfile>
